{"title":"Verliefd.Op.Ibiza.2013.BluRay.1080p.Cinemania.cc.mkv","uid":8904043,"size":8162208772,"categoryP":"video","categoryS":"hd___movies","magnet":"?xt=urn:btih:369f8a89e86073ca73556b753c2b42b5763b090f&amp;dn=Verliefd.Op.Ibiza.2013.BluRay.1080p.Cinemania.cc.mkv&amp;tr=udp%3A%2F%2Ftracker.openbittorrent.com%3A80&amp;tr=udp%3A%2F%2Fopen.demonii.com%3A1337&amp;tr=udp%3A%2F%2Ftracker.coppersurfer.tk%3A6969&amp;tr=udp%3A%2F%2Fexodus.desync.com%3A6969","seeders":1,"leechers":0,"uploader":"ABSTAIN","files":1,"time":1378867611,"description":"[img]http://cinemania.cc/torrents/images/6330.jpg[/img]\n &lt;a href=&quot;\nhttp://www.imdb.com/title/tt2388805/&quot; rel=&quot;nofollow&quot; target=&quot;_NEW&quot;&gt;\nhttp://www.imdb.com/title/tt2388805/&lt;/a&gt;\n\n\nGeneral \nVerliefd.Op.Ibiza.2013.BluRay.1080p.Cinemania.cc.mkv \nFormat : Matroska \nFormat version : Version 4 / Version 2 \nFile size : 7.60 GiB \nDuration : 1h 56mn \nOverall bit rate : 9 326 Kbps \nMovie name : CINEMANIA.CC \nEncoded date : UTC 2013-09-10 21:40:53 \nWriting application : mkvmerge v6.3.0 ('You can't stop me!') built on Jun 28 2013 20:09:41 \nWriting library : libebml v1.3.0 + libmatroska v1.4.0 \n\nVideo \nID : 1 \nFormat : AVC \nFormat/Info : Advanced Video Codec \nFormat profile : &lt;a class=&quot;__cf_email__&quot; href=&quot;/cdn-cgi/l/email-protection&quot; data-cfemail=&quot;6028090708202c544e51&quot;&gt;[email&amp;#160;protected]&lt;/a&gt;&lt;script cf-hash='f9e31' type=&quot;text/javascript&quot;&gt;\n/* &lt;![CDATA[ */!function(){try{var t=&quot;currentScript&quot;in document?document.currentScript:function(){for(var t=document.getElementsByTagName(&quot;script&quot;),e=t.length;e--;)if(t[e].getAttribute(&quot;cf-hash&quot;))return t[e]}();if(t&amp;&amp;t.previousSibling){var e,r,n,i,c=t.previousSibling,a=c.getAttribute(&quot;data-cfemail&quot;);if(a){for(e=&quot;&quot;,r=parseInt(a.substr(0,2),16),n=2;a.length-n;n+=2)i=parseInt(a.substr(n,2),16)^r,e+=String.fromCharCode(i);e=document.createTextNode(e),c.parentNode.replaceChild(e,c)}}}catch(u){}}();/* ]]&gt; */&lt;/script&gt; \nFormat settings, CABAC : Yes \nFormat settings, ReFrames : 4 frames \nCodec ID : V_MPEG4/ISO/AVC \nDuration : 1h 56mn \nBit rate : 8 239 Kbps \nWidth : 1 920 pixels \nHeight : 1 040 pixels \nDisplay aspect ratio : 1.85:1 \nFrame rate mode : Constant \nFrame rate : 24.000 fps \nColor space : YUV \nChroma subsampling : 4:2:0 \nBit depth : 8 bits \nScan type : Progressive \nBits/(Pixel*Frame) : 0.172 \nStream size : 6.56 GiB (86%) \nTitle : CINEMANIA.CC \nWriting library : x264 core 133 r2334 a3ac64b \nEncoding settings : cabac=1 // deblock=1:0:0 / analyse=0x3:0x133 / me=umh / subme=7 / psy=1 / psy_rd=1.00:0.00 // me_range=16 / chroma_me=1 / trellis=1 / 8x8dct=1 / cqm=0 / deadzone=21,11 / fast_pskip=1 / chroma_qp_offset=-2 / threads=6 / lookahead_threads=1 / sliced_threads=0 / nr=0 / decimate=1 / interlaced=0 / bluray_compat=0 / constrained_intra=0 / bframes=3 / b_pyramid=2 / b_adapt=2 / b_bias=0 / direct=3 / weightb=1 / open_gop=0 / weightp=2 / keyint=250 / keyint_min=23 / scenecut=40 / intra_refresh=0 / rc=2pass / mbtree=0 / bitrate=8239 / ratetol=1.0 / qcomp=0.60 / qpmin=0 / qpmax=69 / qpstep=4 / cplxblur=20.0 / qblur=0.5 / ip_ratio=1.40 / pb_ratio=1.30 / aq=1:1.00 \nLanguage : Dutch \nDefault : Yes \nForced : No \n\nAudio #1 \nID : 2 \nFormat : AC-3 \nFormat/Info : Audio Coding 3 \nMode extension : CM (complete main) \nFormat settings, Endianness : Big \nCodec ID : A_AC3 \nDuration : 1h 56mn \nBit rate mode : Constant \nBit rate : 448 Kbps \nChannel(s) : 6 channels \nChannel positions : Front: L C R, Side: L R, LFE \nSampling rate : 48.0 KHz \nBit depth : 16 bits \nCompression mode : Lossy \nStream size : 374 MiB (5%) \nTitle : [GalVid] \nLanguage : Russian \nDefault : Yes \nForced : No \n\nAudio #2 \nID : 3 \nFormat : AC-3 \nFormat/Info : Audio Coding 3 \nMode extension : CM (complete main) \nFormat settings, Endianness : Big \nCodec ID : A_AC3 \nDuration : 1h 56mn \nBit rate mode : Constant \nBit rate : 640 Kbps \nChannel(s) : 6 channels \nChannel positions : Front: L C R, Side: L R, LFE \nSampling rate : 48.0 KHz \nBit depth : 16 bits \nCompression mode : Lossy \nStream size : 534 MiB (7%) \nLanguage : Dutch \nDefault : No \nForced : No \n\nMenu \n00:00:00.000 : en:00:00:00.000 \n00:09:54.500 : en:00:09:54.500 \n00:19:52.083 : en:00:19:52.083 \n00:27:44.458 : en:00:27:44.458 \n00:41:05.708 : en:00:41:05.708 \n00:47:16.417 : en:00:47:16.417 \n00:57:10.875 : en:00:57:10.875 \n01:05:25.417 : en:01:05:25.417 \n01:14:36.458 : en:01:14:36.458 \n01:23:51.292 : en:01:23:51.292 \n01:33:20.750 : en:01:33:20.750 \n01:45:39.208 : en:01:45:39.208 ","torrent":{"xt":"urn:btih:369f8a89e86073ca73556b753c2b42b5763b090f","amp;dn":"Verliefd.Op.Ibiza.2013.BluRay.1080p.Cinemania.cc.mkv","amp;tr":["udp%3A%2F%2Ftracker.openbittorrent.com%3A80","udp%3A%2F%2Fopen.demonii.com%3A1337","udp%3A%2F%2Ftracker.coppersurfer.tk%3A6969","udp%3A%2F%2Fexodus.desync.com%3A6969"],"infoHash":"369f8a89e86073ca73556b753c2b42b5763b090f","infoHashBuffer":{"type":"Buffer","data":[54,159,138,137,232,96,115,202,115,85,107,117,60,43,66,181,118,59,9,15]},"announce":[],"urlList":[]}}